# xmcd CD database file
#
# Track frame offsets:
#	150
#	17709
#	34659
#	47969
#	64894
#	80277
#	94462
#	108892
#	131615
#	151989
#	166082
#	180403
#	195464
#	209808
#	223738
#	237607
#	257018
#	274517
#	285510
#
# Disc length: 4021 seconds
#
# Revision: 0
# Processed by: cddbd v1.5.2PL0 Copyright (c) Steve Scherf et al.
# Submitted via: CDex 1.70beta2
#
DISCID=100fb313
DTITLE=Jones Country - Jones Country JCY-021
DYEAR=0000
DGENRE=Country
TTITLE0=Alabama/Cheap Seats
TTITLE1=Baillie and The Boys/Wilder Days
TTITLE2=Moe Bandy/Rodeo Romeo
TTITLE3=Moe Bandy/You Haven't Heard The Last Of Me
TTITLE4=Bellamy Brothers/I Need More Of You
TTITLE5=T Graham Brown/If You Could Only See Me Now
TTITLE6=T Graham Brown/She Couldn't Love Me Anymore
TTITLE7=Ed Bruce/Last Cowboy Song
TTITLE8=Rosanne Cash/Blue Moon With A Heartache
TTITLE9=Rosanne Cash/I Wonder
TTITLE10=John Conlee/Way Back
TTITLE11=John Conlee/Years After You
TTITLE12=Earl Thomas Conley/Silent Reatment
TTITLE13=Lacy J Dalton/16th Avenue
TTITLE14=Mac Davis/Baby Don't Get Hooked On Me
TTITLE15=Mac Davis/Texas In My Rear View Mirror
TTITLE16=John Denver/Some Days Are Diamonds (Some Are Stone)
TTITLE17=Everly Brothers/('Til) I Kissed You)
TTITLE18=Exile/Nobody's Talking
EXTD=YEAR: 0000
EXTT0=
EXTT1=
EXTT2=
EXTT3=
EXTT4=
EXTT5=
EXTT6=
EXTT7=
EXTT8=
EXTT9=
EXTT10=
EXTT11=
EXTT12=
EXTT13=
EXTT14=
EXTT15=
EXTT16=
EXTT17=
EXTT18=
PLAYORDER=
